<svg xmlns="http://www.w3.org/2000/svg" xmlns:xlink="http://www.w3.org/1999/xlink" version="1.1" width="176" height="99" viewBox="0 0 176 99">
<rect x="0" y="0" width="176" height="99" fill="#ffffff">
</rect>
<g>
<rect x="0" y="0" rx="5" ry="5" width="176.0" height="99.0" fill="#ffffff" opacity="0">
</rect>
<defs>
<clipPath id="ClipPath0">
<rect x="2" y="-3" width="175" height="100">
</rect>
</clipPath>
</defs>
<g clip-path="url(#ClipPath0)">
<defs>
<clipPath id="ClipPath1">
<rect x="2" y="-1" width="173" height="98">
</rect>
</clipPath>
</defs>
<g clip-path="url(#ClipPath1)">
<rect id="Rect_5" x="3.3" y="52.01" width="6.0" height="44.99" fill="#43d09d" stroke="#ffffff">
</rect>
<rect id="Rect_6" x="17.63" y="58.97" width="6.0" height="38.03" fill="#43d09d" stroke="#ffffff">
</rect>
<rect id="Rect_7" x="31.97" y="66.21" width="6.0" height="30.79" fill="#43d09d" stroke="#ffffff">
</rect>
<rect id="Rect_8" x="46.3" y="71.35" width="6.0" height="25.65" fill="#43d09d" stroke="#ffffff">
</rect>
<rect id="Rect_9" x="60.63" y="55.33" width="6.0" height="41.67" fill="#43d09d" stroke="#ffffff">
</rect>
<rect id="Rect_10" x="74.97" y="49.6" width="6.0" height="47.4" fill="#43d09d" stroke="#ffffff">
</rect>
<rect id="Rect_11" x="89.3" y="58.35" width="6.0" height="38.65" fill="#43d09d" stroke="#ffffff">
</rect>
<rect id="Rect_12" x="103.63" y="51.04" width="6.0" height="45.96" fill="#43d09d" stroke="#ffffff">
</rect>
<rect id="Rect_13" x="117.97" y="72.2" width="6.0" height="24.8" fill="#43d09d" stroke="#ffffff">
</rect>
<rect id="Rect_14" x="132.3" y="69.32" width="6.0" height="27.68" fill="#43d09d" stroke="#ffffff">
</rect>
<rect id="Rect_15" x="146.63" y="62.71" width="6.0" height="34.29" fill="#43d09d" stroke="#ffffff">
</rect>
<rect id="Rect_16" x="160.97" y="22.74" width="6.0" height="74.26" fill="#43d09d" stroke="#ffffff">
</rect>
<path d="M2.0 97.0L175.0 97.0Z" stroke="#2a3037" fill="none">
</path>
<rect id="Rect_18" x="9.03" y="28.67" width="6.0" height="68.33" fill="#6d69ff" stroke="#ffffff">
</rect>
<rect id="Rect_19" x="23.37" y="42.45" width="6.0" height="54.55" fill="#6d69ff" stroke="#ffffff">
</rect>
<rect id="Rect_20" x="37.7" y="31.84" width="6.0" height="65.16" fill="#6d69ff" stroke="#ffffff">
</rect>
<rect id="Rect_21" x="52.03" y="21.92" width="6.0" height="75.08" fill="#6d69ff" stroke="#ffffff">
</rect>
<rect id="Rect_22" x="66.37" y="21.1" width="6.0" height="75.9" fill="#6d69ff" stroke="#ffffff">
</rect>
<rect id="Rect_23" x="80.7" y="23.0" width="6.0" height="74.0" fill="#6d69ff" stroke="#ffffff">
</rect>
<rect id="Rect_24" x="95.03" y="20.59" width="6.0" height="76.41" fill="#6d69ff" stroke="#ffffff">
</rect>
<rect id="Rect_25" x="109.37" y="18.63" width="6.0" height="78.37" fill="#6d69ff" stroke="#ffffff">
</rect>
<rect id="Rect_26" x="123.7" y="42.06" width="6.0" height="54.94" fill="#6d69ff" stroke="#ffffff">
</rect>
<rect id="Rect_27" x="138.03" y="30.41" width="6.0" height="66.59" fill="#6d69ff" stroke="#ffffff">
</rect>
<rect id="Rect_28" x="152.37" y="28.81" width="6.0" height="68.19" fill="#6d69ff" stroke="#ffffff">
</rect>
<rect id="Rect_29" x="166.7" y="17.16" width="6.0" height="79.84" fill="#6d69ff" stroke="#ffffff">
</rect>
<path d="M2.0 97.0L175.0 97.0Z" stroke="#2a3037" fill="none">
</path>
</g>
<path d="M2.0 97.0L175.0 97.0" stroke="#2a3037" stroke-dasharray="1,2" fill="none" opacity="0.4">
</path>
<path d="M2.0 74.0L175.0 74.0" stroke="#2a3037" stroke-dasharray="1,2" fill="none" opacity="0.4">
</path>
<path d="M2.0 51.0L175.0 51.0" stroke="#2a3037" stroke-dasharray="1,2" fill="none" opacity="0.4">
</path>
<path d="M2.0 28.0L175.0 28.0" stroke="#2a3037" stroke-dasharray="1,2" fill="none" opacity="0.4">
</path>
<path d="M2.0 5.0L175.0 5.0" stroke="#2a3037" stroke-dasharray="1,2" fill="none" opacity="0.4">
</path>
<path d="M2.0 97.0L175.0 97.0" stroke="#2a3037" stroke-dasharray="1,2" fill="none" opacity="0.4">
</path>
<path d="M2.0 74.0L175.0 74.0" stroke="#2a3037" stroke-dasharray="1,2" fill="none" opacity="0.4">
</path>
<path d="M2.0 51.0L175.0 51.0" stroke="#2a3037" stroke-dasharray="1,2" fill="none" opacity="0.4">
</path>
<path d="M2.0 28.0L175.0 28.0" stroke="#2a3037" stroke-dasharray="1,2" fill="none" opacity="0.4">
</path>
<path d="M2.0 5.0L175.0 5.0" stroke="#2a3037" stroke-dasharray="1,2" fill="none" opacity="0.4">
</path>
</g>
</g>
</svg>
